<?xml version="1.0" encoding="UTF-8" standalone="no"?>
<!-- Created with Inkscape (http://www.inkscape.org/) -->

<svg
   width="92.074997mm"
   height="34.131248mm"
   viewBox="0 0 92.074997 34.131248"
   version="1.1"
   id="svg1"
   xml:space="preserve"
   sodipodi:docname="NOWS.svg"
   inkscape:version="1.4 (86a8ad7, 2024-10-11)"
   xmlns:inkscape="http://www.inkscape.org/namespaces/inkscape"
   xmlns:sodipodi="http://sodipodi.sourceforge.net/DTD/sodipodi-0.dtd"
   xmlns="http://www.w3.org/2000/svg"
   xmlns:svg="http://www.w3.org/2000/svg"><sodipodi:namedview
     id="namedview1"
     pagecolor="#ffffff"
     bordercolor="#000000"
     borderopacity="0.25"
     inkscape:showpageshadow="2"
     inkscape:pageopacity="0.0"
     inkscape:pagecheckerboard="0"
     inkscape:deskcolor="#d1d1d1"
     inkscape:document-units="mm"
     inkscape:zoom="2"
     inkscape:cx="64"
     inkscape:cy="65.75"
     inkscape:window-width="2560"
     inkscape:window-height="1009"
     inkscape:window-x="-8"
     inkscape:window-y="-8"
     inkscape:window-maximized="1"
     inkscape:current-layer="svg1" /><defs
     id="defs1"><inkscape:path-effect
       effect="fillet_chamfer"
       id="path-effect9"
       is_visible="true"
       lpeversion="1"
       nodesatellites_param="F,0,0,1,0,0.79374997,0,1 @ F,0,0,1,0,0.79374997,0,1 @ F,0,0,1,0,0.79374997,0,1 @ F,0,0,1,0,0.79374997,0,1"
       radius="3"
       unit="px"
       method="auto"
       mode="F"
       chamfer_steps="1"
       flexible="false"
       use_knot_distance="true"
       apply_no_radius="true"
       apply_with_radius="true"
       only_selected="false"
       hide_knots="false" /><inkscape:path-effect
       effect="fillet_chamfer"
       id="path-effect8"
       is_visible="true"
       lpeversion="1"
       nodesatellites_param="F,0,0,1,0,0.79374997,0,1 @ F,0,0,1,0,0.79374997,0,1 @ F,0,0,1,0,0.79374997,0,1 @ F,0,0,1,0,0.79374997,0,1 @ F,0,0,1,0,0.79374997,0,1 @ F,0,0,1,0,0.79374997,0,1 @ F,0,0,1,0,0.79374997,0,1 @ F,0,0,1,0,0.79374997,0,1 @ F,0,0,1,0,0.79374997,0,1 @ F,0,0,1,0,0.79374997,0,1 @ F,0,0,1,0,0.79374997,0,1 @ F,0,0,1,0,0.79374997,0,1 @ F,0,0,1,0,0.79374997,0,1 @ F,0,0,1,0,0.79374997,0,1 @ F,0,0,1,0,0.79374997,0,1 @ F,0,0,1,0,0.79374997,0,1 @ F,0,0,1,0,0.79374997,0,1 @ F,0,0,1,0,0.79374997,0,1 @ F,0,0,1,0,0.79374997,0,1 @ F,0,0,1,0,0.79374997,0,1 @ F,0,0,1,0,0.79374997,0,1 @ F,0,0,1,0,0.79374997,0,1 @ F,0,0,1,0,0.79374997,0,1 @ F,0,0,1,0,0.79374997,0,1 @ F,0,0,1,0,0.79374997,0,1 @ F,0,0,1,0,0.79374997,0,1 @ F,0,0,1,0,0.79374997,0,1 @ F,0,0,1,0,0.79374997,0,1 @ F,0,0,1,0,0.79374997,0,1 @ F,0,0,1,0,0.79374997,0,1"
       radius="3"
       unit="px"
       method="auto"
       mode="F"
       chamfer_steps="1"
       flexible="false"
       use_knot_distance="true"
       apply_no_radius="true"
       apply_with_radius="true"
       only_selected="false"
       hide_knots="false" /><inkscape:path-effect
       effect="fillet_chamfer"
       id="path-effect7"
       is_visible="true"
       lpeversion="1"
       nodesatellites_param="F,0,0,1,0,0.52916665,0,1 @ F,0,0,1,0,0.52916665,0,1 @ F,0,0,1,0,0.52916665,0,1 @ F,0,0,1,0,0.52916665,0,1 @ F,0,0,1,0,0.52916665,0,1 @ F,0,0,1,0,0.52916665,0,1 @ F,0,0,1,0,0.52916665,0,1 @ F,0,0,1,0,0.52916665,0,1 @ F,0,0,1,0,0.52916665,0,1 @ F,0,0,1,0,0.52916665,0,1 @ F,0,0,1,0,0.52916665,0,1 @ F,0,0,1,0,0.52916665,0,1 @ F,0,0,1,0,0.52916665,0,1 @ F,0,0,1,0,0.52916665,0,1 @ F,0,0,1,0,0.52916665,0,1 @ F,0,0,1,0,0.52916665,0,1 @ F,0,0,1,0,0.52916665,0,1 @ F,0,0,1,0,0.52916665,0,1 @ F,0,0,1,0,0.52916665,0,1 @ F,0,0,1,0,0.52916665,0,1 @ F,0,0,1,0,0.52916665,0,1 @ F,0,0,1,0,0.52916665,0,1 @ F,0,0,1,0,0.52916665,0,1 @ F,0,0,1,0,0.52916665,0,1 @ F,0,0,1,0,0.52916665,0,1 @ F,0,0,1,0,0.52916665,0,1 @ F,0,0,1,0,0.52916665,0,1 @ F,0,0,1,0,0.52916665,0,1 @ F,0,0,1,0,0.52916665,0,1 @ F,0,0,1,0,0.52916665,0,1 @ F,0,0,1,0,0.52916665,0,1 @ F,0,0,1,0,0.52916665,0,1 @ F,0,0,1,0,0.52916665,0,1 @ F,0,0,1,0,0.52916665,0,1 @ F,0,0,1,0,0.52916665,0,1"
       radius="3"
       unit="px"
       method="bezier"
       mode="F"
       chamfer_steps="1"
       flexible="false"
       use_knot_distance="true"
       apply_no_radius="true"
       apply_with_radius="true"
       only_selected="false"
       hide_knots="false" /><inkscape:path-effect
       effect="fillet_chamfer"
       id="path-effect6"
       is_visible="true"
       lpeversion="1"
       nodesatellites_param="F,0,0,1,0,0.79374997,0,1 @ F,0,0,1,0,0.79374997,0,1 @ F,0,0,1,0,0.79374997,0,1 @ F,0,0,1,0,0.79374997,0,1 @ F,0,0,1,0,0.79374997,0,1 @ F,0,0,1,0,0.79374997,0,1 @ F,0,0,1,0,0.79374997,0,1 @ F,0,0,1,0,0.79374997,0,1 @ F,0,0,1,0,0.79374997,0,1 @ F,0,0,1,0,0.79374997,0,1 @ F,0,0,1,0,0.79374997,0,1 @ F,0,0,1,0,0.79374997,0,1 @ F,0,0,1,0,0.79374997,0,1"
       radius="3"
       unit="px"
       method="auto"
       mode="F"
       chamfer_steps="1"
       flexible="false"
       use_knot_distance="true"
       apply_no_radius="true"
       apply_with_radius="true"
       only_selected="false"
       hide_knots="false" /><inkscape:path-effect
       effect="fillet_chamfer"
       id="path-effect5"
       is_visible="true"
       lpeversion="1"
       nodesatellites_param="F,0,0,1,0,0.79374997,0,1 @ F,0,0,1,0,0.79374997,0,1 @ F,0,0,1,0,0.79374997,0,1 @ F,0,0,1,0,0.79374997,0,1 @ F,0,0,1,0,0.79374997,0,1 @ F,0,0,1,0,0.79374997,0,1 @ F,0,0,1,0,0.79374997,0,1"
       radius="3"
       unit="px"
       method="auto"
       mode="F"
       chamfer_steps="1"
       flexible="false"
       use_knot_distance="true"
       apply_no_radius="true"
       apply_with_radius="true"
       only_selected="false"
       hide_knots="false" /><inkscape:path-effect
       effect="bspline"
       id="path-effect3"
       is_visible="true"
       lpeversion="1.3"
       weight="33.333333"
       steps="2"
       helper_size="0"
       apply_no_weight="true"
       apply_with_weight="true"
       only_selected="false"
       uniform="false" /><inkscape:path-effect
       effect="bspline"
       id="path-effect2"
       is_visible="true"
       lpeversion="1.3"
       weight="33.333333"
       steps="2"
       helper_size="0"
       apply_no_weight="true"
       apply_with_weight="true"
       only_selected="false"
       uniform="false" /><inkscape:path-effect
       effect="fillet_chamfer"
       id="path-effect4"
       is_visible="true"
       lpeversion="1"
       nodesatellites_param="F,0,0,1,0,0.29730367,0,1 @ F,0,0,1,0,0.30907542,0,1 @ F,0,0,1,0,0.3199591,0,1 @ F,0,0,1,0,0.2979491,0,1"
       radius="0"
       unit="px"
       method="auto"
       mode="F"
       chamfer_steps="1"
       flexible="false"
       use_knot_distance="true"
       apply_no_radius="true"
       apply_with_radius="true"
       only_selected="false"
       hide_knots="false" /><inkscape:path-effect
       effect="fillet_chamfer"
       id="path-effect4-2"
       is_visible="true"
       lpeversion="1"
       nodesatellites_param="F,0,0,1,0,0.29730367,0,1 @ F,0,0,1,0,0.30907542,0,1 @ F,0,0,1,0,0.3199591,0,1 @ F,0,0,1,0,0.2979491,0,1"
       radius="0"
       unit="px"
       method="auto"
       mode="F"
       chamfer_steps="1"
       flexible="false"
       use_knot_distance="true"
       apply_no_radius="true"
       apply_with_radius="true"
       only_selected="false"
       hide_knots="false" /><inkscape:path-effect
       effect="fillet_chamfer"
       id="path-effect4-7"
       is_visible="true"
       lpeversion="1"
       nodesatellites_param="F,0,0,1,0,0.29730367,0,1 @ F,0,0,1,0,0.30907542,0,1 @ F,0,0,1,0,0.3199591,0,1 @ F,0,0,1,0,0.2979491,0,1"
       radius="0"
       unit="px"
       method="auto"
       mode="F"
       chamfer_steps="1"
       flexible="false"
       use_knot_distance="true"
       apply_no_radius="true"
       apply_with_radius="true"
       only_selected="false"
       hide_knots="false" /></defs><g
     inkscape:label="Layer 1"
     inkscape:groupmode="layer"
     id="layer1"
     transform="translate(-59.002086,-131.36563)"
     style="display:inline"><path
       id="path4"
       style="opacity:1;fill:#000000;fill-rule:nonzero;stroke:none;stroke-width:0.336586;stroke-dasharray:none;paint-order:markers fill stroke"
       d="m 94.810237,140.82965 a 8.7973223,8.3292561 0 0 0 -8.797396,8.32921 8.7973223,8.3292561 0 0 0 8.797396,8.32921 8.7973223,8.3292561 0 0 0 8.797393,-8.32921 8.7973223,8.3292561 0 0 0 -8.797393,-8.32921 z m -0.04341,3.25768 a 5.1772532,5.2143383 0 0 1 5.177462,5.21416 5.1772532,5.2143383 0 0 1 -5.177462,5.21415 5.1772532,5.2143383 0 0 1 -5.176945,-5.21415 5.1772532,5.2143383 0 0 1 5.176945,-5.21416 z"
       inkscape:label="O" /><path
       style="opacity:1;fill:#000000;fill-rule:nonzero;stroke:none;stroke-width:0.264999;stroke-dasharray:none;paint-order:markers fill stroke"
       id="rect4"
       width="3.0635769"
       height="7.5069327"
       x="69.642754"
       y="149.65355"
       inkscape:label="N2"
       inkscape:path-effect="#path-effect9"
       sodipodi:type="rect"
       d="m 70.436504,149.65355 h 1.476077 a 0.79374997,0.79374997 45 0 1 0.79375,0.79375 l 0,5.91943 a 0.79374997,0.79374997 135 0 1 -0.79375,0.79375 h -1.476077 a 0.79374997,0.79374997 45 0 1 -0.79375,-0.79375 v -5.91943 a 0.79374997,0.79374997 135 0 1 0.79375,-0.79375 z" /><path
       id="rect4-6"
       style="fill:#000000;fill-rule:nonzero;stroke:none;stroke-width:0.385757;stroke-dasharray:none;paint-order:markers fill stroke"
       d="m 70.077133,141.88451 9.548232,14.62931 a 1.4473522,1.4473522 28.127357 0 0 1.227539,0.6562 l 1.502842,-0.0161 a 0.80229744,0.80229744 134.69316 0 0 0.793704,-0.80225 V 142.03165 A 0.79374997,0.79374997 45 0 0 82.3557,141.2379 l -1.475879,0 a 0.79374997,0.79374997 135 0 0 -0.79375,0.79375 v 8.75347 a 0.23998838,0.23998838 163.17744 0 1 -0.439775,0.13296 l -6.004784,-9.02249 a 1.4892658,1.4892658 28.298114 0 0 -1.233518,-0.66413 l -1.970953,-0.008 a 0.4276319,0.4276319 118.55487 0 0 -0.359908,0.66136 z"
       sodipodi:nodetypes="cccccccc"
       inkscape:label="N"
       inkscape:path-effect="#path-effect5"
       inkscape:original-d="m 69.643298,141.21981 10.415902,15.95871 3.09025,-0.0331 V 141.2379 h -3.063379 v 10.34097 L 73.201737,141.2348 Z" /><path
       style="fill:#000000;stroke-width:0.264583"
       d="m 105.21155,141.43552 c 0.99674,-0.0107 1.64559,-0.0126 2.06793,-0.0106 0.43457,0.002 0.89683,0.35792 1.03278,0.77468 l 3.08573,9.45886 a 0.26821704,0.26821704 0.60303006 0 0 0.50817,0.005 l 3.31132,-9.46956 a 1.1098906,1.1098906 144.84457 0 1 1.05573,-0.7435 l 1.63982,0.0119 a 1.1126874,1.1126874 35.918081 0 1 1.04663,0.75814 l 3.23597,9.62701 a 0.26457923,0.26457923 179.85542 0 0 0.502,-0.001 l 3.17342,-9.60109 a 1.1065308,1.1065308 143.94319 0 1 1.04283,-0.75924 l 1.73336,-0.0122 a 0.57304529,0.57304529 53.768992 0 1 0.54922,0.74956 l -4.53899,14.01806 a 1.0842801,1.0842801 144.1478 0 1 -1.03824,0.75025 l -2.20108,-0.0136 a 1.121945,1.121945 35.632402 0 1 -1.05332,-0.755 l -3.08228,-8.90661 a 0.27678647,0.27678647 0.13496027 0 0 -0.52271,-0.001 l -3.12199,8.88568 a 1.1342968,1.1342968 144.34228 0 1 -1.05681,0.75821 l -2.38825,0.0281 a 1.0743744,1.0743744 35.782625 0 1 -1.03581,-0.74658 l -4.497,-14.03991 c -0.13372,-0.41748 0.11322,-0.76071 0.55157,-0.76543 z"
       id="path1"
       inkscape:label="W"
       inkscape:path-effect="#path-effect6"
       inkscape:original-d="m 104.41786,141.44503 c 3.57807,-0.0468 3.64823,0 3.64823,0 l 3.57807,10.96808 3.83532,-10.96808 3.22728,0.0234 3.74177,11.13177 3.67162,-11.10839 3.32082,-0.0234 -5.02801,15.52836 -3.78854,-0.0234 -3.60146,-10.40681 -3.64823,10.38342 -3.97563,0.0468 z" /><path
       d="m 136.30178,157.3084 c -0.92548,-0.0207 -1.74909,-0.10955 -2.36329,-0.21996 -0.43106,-0.0775 -1.11211,-0.28684 -1.51876,-0.45027 -0.45228,-0.18176 -0.89236,-0.39191 -1.32773,-0.61196 -0.39071,-0.19748 -0.55427,-0.68562 -0.38715,-1.09084 0.16388,-0.39734 0.32008,-0.79832 0.49308,-1.19109 0.17596,-0.3995 0.67563,-0.58456 1.08209,-0.41955 0.0494,0.02 0.10057,0.0409 0.15337,0.0624 0.40541,0.16511 1.06043,0.44155 1.47724,0.577 0.66836,0.21719 1.29138,0.32479 2.10048,0.36481 0.43795,0.0217 1.14922,0.0236 1.5874,0.0113 0.50182,-0.014 0.84707,-0.049 1.10974,-0.11995 0.41767,-0.11279 0.94466,-0.65101 1.11239,-1.05351 0.0833,-0.19993 0.032,-0.75305 -0.24057,-1.08775 -0.1569,-0.19266 -0.61976,-0.51151 -1.02416,-0.67831 -0.4022,-0.16589 -0.91954,-0.34452 -1.46462,-0.50398 -0.42028,-0.12296 -1.11126,-0.28941 -1.53261,-0.41028 -0.66961,-0.19209 -1.34529,-0.41931 -1.87027,-0.62753 -0.40661,-0.16128 -1.03312,-0.50086 -1.38424,-0.76291 -0.12994,-0.097 -0.25639,-0.19803 -0.37395,-0.29875 -0.33201,-0.28446 -0.7575,-0.86236 -0.91007,-1.27213 -0.0442,-0.1187 -0.0853,-0.24289 -0.12186,-0.36867 -0.12218,-0.41994 -0.21144,-1.13218 -0.17261,-1.56812 0.0246,-0.27646 0.0841,-0.54195 0.18424,-0.82453 0.1464,-0.41304 0.47881,-1.04766 0.74249,-1.3972 0.23648,-0.31349 0.51476,-0.59699 0.84329,-0.85928 0.34238,-0.27335 0.94859,-0.64855 1.33225,-0.86059 0.65926,-0.36435 1.18701,-0.49445 2.75853,-0.51999 0.43823,-0.007 1.14903,-0.006 1.58722,0.006 1.32234,0.0378 2.02691,0.17198 2.67053,0.40603 0.41173,0.14972 1.05447,0.45519 1.45306,0.63766 0.30006,0.13736 0.37937,0.56473 0.21225,0.96984 -0.16705,0.40497 -0.31354,0.81488 -0.48255,1.22864 -0.16447,0.40263 -0.66121,0.6116 -1.07125,0.45862 -0.39497,-0.14735 -1.04729,-0.39635 -1.47199,-0.50408 -0.44401,-0.11264 -0.92943,-0.19945 -1.39119,-0.24872 -0.43559,-0.0465 -1.14832,-0.0552 -1.58484,-0.0163 -0.30554,0.0272 -0.55589,0.0749 -0.77633,0.14938 -0.41312,0.13951 -1.02021,0.57948 -1.21753,0.96704 -0.17015,0.33419 -0.0698,1.06597 0.23105,1.37299 0.005,0.005 0.01,0.01 0.0148,0.0149 0.30998,0.3074 0.979,0.59065 1.3913,0.73903 0.45666,0.16433 1.03271,0.3488 1.61502,0.51625 0.42088,0.12103 1.10976,0.2958 1.52888,0.42416 0.56449,0.17288 1.11489,0.37042 1.54715,0.5538 0.40286,0.17091 1.00135,0.5593 1.32685,0.85252 0.0663,0.0597 0.13173,0.1207 0.19522,0.18193 0.31485,0.30364 0.75394,0.8776 0.88256,1.29448 0.051,0.16539 0.0901,0.34494 0.11757,0.54044 0.061,0.43373 0.0561,1.14899 -0.006,1.58264 -0.0341,0.24002 -0.0834,0.47087 -0.14637,0.68573 -0.12289,0.41965 -0.49711,1.03358 -0.80287,1.34635 -0.19246,0.19686 -0.41683,0.3997 -0.6508,0.58779 -0.34132,0.2744 -0.94167,0.65804 -1.3251,0.87048 -0.62202,0.34462 -1.1362,0.48089 -2.54488,0.54018 -0.43791,0.0184 -1.14871,0.0334 -1.58694,0.0236 z"
       style="fill:#000000"
       id="path1-8"
       sodipodi:nodetypes="sccsscsssssscsscscsssscssssssss"
       inkscape:path-effect="#path-effect8"
       inkscape:original-d="m 137.09547,157.30889 c -1.74984,0.0373 -3.2673,-0.18703 -3.92866,-0.40319 -0.97444,-0.30336 -1.8783,-0.7733 -2.7793,-1.24286 0.40731,-0.86618 0.70147,-1.78685 1.15396,-2.63041 0.0208,6.7e-4 0.75221,0.2955 1.62534,0.65518 1.21238,0.49942 2.07203,0.65543 3.63802,0.66023 1.70299,0.005 2.1402,-0.0834 2.57969,-0.52289 0.29104,-0.29104 0.52916,-0.75865 0.52916,-1.03913 0,-0.28048 -0.29385,-0.7411 -0.653,-1.02361 -0.35915,-0.28251 -1.67994,-0.76461 -2.93508,-1.07132 -1.25514,-0.30672 -2.76644,-0.82835 -3.35845,-1.1592 -0.59201,-0.33084 -1.30838,-0.91535 -1.59193,-1.29891 -0.28356,-0.38356 -0.56968,-1.21699 -0.63584,-1.85208 -0.0896,-0.86042 0.0358,-1.45736 0.49212,-2.34225 0.41883,-0.8122 1.02418,-1.43941 1.91522,-1.98438 1.24393,-0.7608 1.4353,-0.93692 4.23333,-0.93216 2.4461,0.004 3.13962,0.24102 4.19552,0.7244 l 1.26502,0.5791 c -0.45013,0.86663 -0.68135,1.75986 -1.13621,2.66816 -0.009,0.0186 -0.69726,-0.2382 -1.4628,-0.52917 -0.81627,-0.31024 -2.03251,-0.52903 -2.94089,-0.52903 -1.17666,0 -1.72006,0.13457 -2.26073,0.55986 -0.51112,0.40205 -0.68899,0.75632 -0.63099,1.25678 0.057,0.49161 0.35355,0.83273 1.0068,1.15801 0.50932,0.25361 1.91122,0.71393 3.11533,1.02292 1.20411,0.309 2.56238,0.81587 3.01838,1.12639 0.456,0.31052 1.06213,0.87927 1.34697,1.26388 0.35397,0.47798 0.51787,1.12362 0.51787,2.03995 0,0.84217 -0.18829,1.66306 -0.50641,2.20775 -0.27853,0.47691 -1.08602,1.22581 -1.79443,1.66422 -1.19605,0.74021 -1.41776,0.91831 -4.01801,0.97376 z" /></g></svg>
